<svg width="11" height="10" fill="none" xmlns="http://www.w3.org/2000/svg"><path d="M3.8 0H1.27C.9 0 .62.13.37.4.12.66 0 .98 0 1.36V4.1c0 .38.12.7.37.97.25.26.54.4.9.4h1.47c.18 0 .33.06.45.2.12.13.18.29.18.48v.22c0 .5-.16.93-.49 1.29-.33.35-.73.53-1.2.53h-.41a.4.4 0 0 0-.3.14.45.45 0 0 0-.13.32v.9c0 .13.05.24.13.33a.4.4 0 0 0 .3.13h.42a3.4 3.4 0 0 0 3.1-2.23c.18-.44.27-.91.27-1.4v-5c0-.39-.12-.7-.37-.97-.24-.27-.54-.4-.9-.4zM10.6.4c-.25-.27-.55-.4-.9-.4H7.17c-.35 0-.65.13-.9.4-.24.26-.36.58-.36.96V4.1c0 .38.12.7.37.97.24.26.54.4.9.4h1.47c.17 0 .32.06.45.2.12.13.18.29.18.48v.22c0 .5-.16.93-.5 1.29-.32.35-.72.53-1.19.53h-.42a.4.4 0 0 0-.3.14.45.45 0 0 0-.12.32v.9c0 .13.04.24.13.32a.4.4 0 0 0 .3.14h.41a3.4 3.4 0 0 0 3.1-2.23c.19-.44.28-.91.28-1.4v-5c0-.39-.12-.7-.37-.97z" fill="#F6762C"/></svg>