<svg width="35" height="21" fill="none" xmlns="http://www.w3.org/2000/svg"><path d="M34.62 10.85a10.15 10.15 0 1 1-20.3 0 10.16 10.16 0 0 1 20.3 0z" fill="#FFB600"/><path d="M24.47.7a10.15 10.15 0 1 1-10.15 10.15" fill="#F7981D"/><path d="M24.47.7a10.15 10.15 0 1 1 0 20.3" fill="#FF8500"/><path d="M10.82.7a10.16 10.16 0 1 0 7.95 16.6h-2.09c-.27-.33-.54-.7-.75-1.03h3.6c.21-.32.43-.7.59-1.07h-4.78a6.4 6.4 0 0 1-.43-1.08h5.58c.33-1.02.54-2.1.54-3.22 0-.75-.1-1.45-.21-2.15h-6.24c.06-.38.17-.7.27-1.07h5.59c-.1-.38-.27-.76-.43-1.08h-4.73c.16-.37.38-.7.6-1.07h3.6a5.11 5.11 0 0 0-.81-1.08h-1.99c.32-.37.64-.7 1.02-1.02A9.91 9.91 0 0 0 10.88.8c0-.1 0-.1-.06-.1z" fill="#FF5050"/><path d="M.78 10.85a10.15 10.15 0 0 0 18 6.44h-2.1c-.27-.32-.54-.7-.75-1.02h3.6c.21-.32.43-.7.59-1.07h-4.78a6.4 6.4 0 0 1-.43-1.08h5.58c.33-1.02.54-2.1.54-3.22 0-.75-.1-1.45-.21-2.15h-6.24c.06-.38.17-.7.27-1.07h5.59c-.1-.38-.27-.76-.43-1.08h-4.73c.16-.37.38-.7.6-1.07h3.6a5.11 5.11 0 0 0-.81-1.08h-1.99c.32-.37.64-.7 1.02-1.02A9.91 9.91 0 0 0 10.88.8h-.06" fill="#E52836"/><path d="M10.93 21c2.63 0 5-1.02 6.82-2.63.38-.32.7-.7 1.03-1.08h-2.1c-.27-.32-.54-.7-.75-1.02h3.6c.21-.32.43-.7.59-1.07h-4.78c-.16-.32-.33-.7-.43-1.08h5.58c.33-1.02.54-2.1.54-3.22 0-.75-.1-1.45-.21-2.15h-6.24c.06-.38.17-.7.27-1.07h5.6A6.4 6.4 0 0 0 20 6.6h-4.73c.16-.37.38-.7.6-1.07h3.6a5.1 5.1 0 0 0-.81-1.08h-1.99c.32-.37.64-.7 1.02-1.02A9.91 9.91 0 0 0 10.88.8h-.06" fill="#CB2026"/><path d="M14.53 13.42l.16-.9c-.05 0-.16.04-.27.04-.37 0-.43-.21-.37-.32l.32-1.88h.59l.16-1.02h-.54l.11-.64h-1.07s-.65 3.54-.65 3.97c0 .65.38.92.86.92.32 0 .6-.11.7-.17zM14.9 11.7c0 1.5 1.03 1.89 1.89 1.89.8 0 1.13-.17 1.13-.17l.21-1.02s-.59.27-1.13.27c-1.18 0-.96-.86-.96-.86h2.2s.16-.7.16-.96c0-.7-.37-1.56-1.56-1.56-1.13-.11-1.93 1.07-1.93 2.41zm1.89-1.55c.6 0 .48.7.48.75H16.1c0-.05.1-.75.7-.75zM23.62 13.42l.21-1.18s-.53.27-.91.27c-.75 0-1.08-.59-1.08-1.23 0-1.3.65-2 1.4-2 .54 0 .97.33.97.33l.16-1.13s-.64-.27-1.24-.27c-1.23 0-2.47 1.08-2.47 3.12 0 1.34.65 2.26 1.94 2.26.43 0 1.02-.17 1.02-.17zM8.62 9.18a3.8 3.8 0 0 0-1.29.21l-.16.92s.49-.22 1.18-.22c.38 0 .7.06.7.38 0 .21-.05.27-.05.27h-.48c-.92 0-1.94.37-1.94 1.6 0 .98.65 1.2 1.02 1.2.75 0 1.08-.5 1.13-.5l-.05.44h.96l.43-2.96c0-1.29-1.07-1.34-1.45-1.34zm.22 2.42c0 .16-.11 1.02-.75 1.02-.33 0-.43-.27-.43-.43 0-.27.16-.65.96-.65.16.06.22.06.22.06zM11.1 13.53c.26 0 1.6.06 1.6-1.4 0-1.34-1.28-1.07-1.28-1.6 0-.28.21-.38.59-.38.16 0 .75.05.75.05l.16-.97s-.38-.1-1.02-.1c-.8 0-1.61.32-1.61 1.4 0 1.23 1.34 1.12 1.34 1.6 0 .33-.37.38-.64.38-.49 0-.97-.16-.97-.16l-.16.97c.05.1.32.21 1.23.21zM32.53 8.32l-.21 1.45s-.43-.54-1.02-.54c-.97 0-1.83 1.19-1.83 2.58 0 .86.43 1.78 1.34 1.78.65 0 1.03-.43 1.03-.43l-.06.37h1.08l.8-5.16-1.13-.05zm-.48 2.85c0 .59-.27 1.34-.86 1.34-.38 0-.59-.32-.59-.86 0-.86.38-1.4.86-1.4.38 0 .59.27.59.92zM2.77 13.48l.64-3.87.11 3.87h.75l1.4-3.87-.59 3.87h1.13l.86-5.16H5.29l-1.07 3.17-.05-3.17H2.6l-.86 5.16h1.02zM19.42 13.48c.33-1.78.38-3.23 1.13-2.96.11-.7.27-.96.38-1.23h-.22c-.48 0-.86.64-.86.64l.11-.59h-1.02l-.7 4.2h1.18v-.06zM26.09 9.18c-.75 0-1.3.21-1.3.21l-.15.92s.48-.22 1.18-.22c.38 0 .7.06.7.38 0 .21-.06.27-.06.27h-.48c-.91 0-1.93.37-1.93 1.6 0 .98.64 1.2 1.02 1.2.75 0 1.07-.5 1.13-.5l-.06.44h.97l.43-2.96c.05-1.29-1.08-1.34-1.45-1.34zm.27 2.42c0 .16-.11 1.02-.76 1.02-.32 0-.43-.27-.43-.43 0-.27.17-.65.97-.65.16.06.16.06.22.06zM28.45 13.48c.32-1.78.37-3.23 1.13-2.96.1-.7.26-.96.37-1.23h-.21c-.49 0-.86.64-.86.64l.1-.59h-1.02l-.7 4.2h1.19v-.06z" fill="#fff"/><path d="M12.87 12.67c0 .65.37.92.86.92.37 0 .7-.11.8-.17l.16-.9c-.05 0-.16.04-.27.04-.37 0-.43-.21-.37-.32l.32-1.88h.6l.15-1.02h-.53l.1-.64M15.44 11.7c0 1.5.49 1.89 1.35 1.89.8 0 1.13-.17 1.13-.17l.21-1.02s-.59.27-1.13.27c-1.18 0-.96-.86-.96-.86h2.2s.16-.7.16-.96c0-.7-.38-1.56-1.56-1.56-1.13-.11-1.4 1.07-1.4 2.41zm1.35-1.55c.59 0 .7.7.7.75h-1.4c0-.05.1-.75.7-.75zM23.62 13.42l.21-1.18s-.54.27-.91.27c-.75 0-1.08-.59-1.08-1.23 0-1.3.65-2 1.4-2 .54 0 .97.33.97.33l.16-1.13s-.65-.27-1.24-.27c-1.23 0-1.93 1.08-1.93 3.12 0 1.34.1 2.26 1.4 2.26.42 0 1.02-.17 1.02-.17zM7.17 10.36s.49-.21 1.18-.21c.38 0 .7.05.7.37 0 .22-.05.27-.05.27h-.48c-.92 0-1.94.38-1.94 1.61 0 .97.65 1.19 1.02 1.19.75 0 1.08-.49 1.13-.49l-.05.43h.96l.43-2.95c0-1.24-1.07-1.3-1.5-1.3l-1.4 1.08zm2.2 1.24c0 .16-.64 1.02-1.28 1.02-.33 0-.43-.27-.43-.43 0-.27.16-.65.96-.65.16.06.75.06.75.06zM9.91 13.42s.33.11 1.24.11c.27 0 1.61.06 1.61-1.4 0-1.34-1.29-1.07-1.29-1.6 0-.28.22-.38.6-.38.15 0 .74.05.74.05l.17-.97s-.38-.1-1.03-.1c-.8 0-1.07.32-1.07 1.4 0 1.23.8 1.12.8 1.6 0 .33-.37.38-.64.38M32.32 9.77s-.43-.54-1.02-.54c-.97 0-1.3 1.19-1.3 2.58 0 .86-.1 1.78.81 1.78.65 0 1.02-.43 1.02-.43l-.05.37h1.07l.81-5.16-1.34 1.4zm-.06 1.4c0 .59-.48 1.34-1.07 1.34-.38 0-.6-.32-.6-.86 0-.86.38-1.4.87-1.4.37 0 .8.27.8.92zM2.77 13.48l.64-3.87.11 3.87h.75l1.4-3.87-.59 3.87h1.13l.86-5.16H5.72l-1.5 3.17-.05-3.17h-.6l-1.82 5.16h1.02zM18.3 13.48h1.12c.33-1.78.38-3.23 1.13-2.96.1-.7.27-.96.38-1.23h-.22c-.48 0-.86.64-.86.64l.11-.59M24.64 10.36s.48-.21 1.18-.21c.38 0 .7.05.7.37 0 .22-.06.27-.06.27h-.48c-.91 0-1.93.38-1.93 1.61 0 .97.64 1.19 1.02 1.19.75 0 1.07-.49 1.13-.49l-.06.43h.97l.43-2.95c0-1.24-1.08-1.3-1.5-1.3l-1.4 1.08zm2.2 1.24c0 .16-.64 1.02-1.29 1.02-.32 0-.43-.27-.43-.43 0-.27.16-.65.97-.65.21.06.75.06.75.06zM27.32 13.48h1.13c.32-1.78.38-3.23 1.13-2.96.1-.7.27-.96.38-1.23h-.22c-.48 0-.86.64-.86.64l.1-.59" fill="#DCE5E5"/></svg>