<svg width="11" height="10" fill="none" xmlns="http://www.w3.org/2000/svg"><path d="M7.17 0H9.7c.35 0 .65.13.9.4.25.26.37.58.37.96V4.1c0 .38-.12.7-.37.97-.25.26-.55.4-.9.4H8.23a.59.59 0 0 0-.45.2.68.68 0 0 0-.19.48v.22c0 .5.17.93.5 1.29.33.35.73.53 1.2.53h.41a.4.4 0 0 1 .3.14c.08.09.13.2.13.32v.9c0 .13-.05.24-.13.33a.4.4 0 0 1-.3.13h-.42a3.4 3.4 0 0 1-3.1-2.23 3.78 3.78 0 0 1-.27-1.4v-5c0-.39.12-.7.37-.97.24-.27.54-.4.9-.4zM.37.4c.25-.27.54-.4.9-.4H3.8c.35 0 .65.13.9.4.24.26.36.58.36.96V4.1c0 .38-.12.7-.37.97-.24.26-.54.4-.9.4H2.33a.59.59 0 0 0-.45.2.68.68 0 0 0-.18.48v.22c0 .5.16.93.5 1.29.32.35.72.53 1.19.53h.42a.4.4 0 0 1 .3.14c.08.09.12.2.12.32v.9c0 .13-.04.24-.13.32a.4.4 0 0 1-.3.14h-.41a3.4 3.4 0 0 1-3.1-2.23 3.78 3.78 0 0 1-.28-1.4v-5C0 .97.12.66.37.4z" fill="#F6762C"/></svg>