<svg width="19" height="22" fill="none" xmlns="http://www.w3.org/2000/svg"><path d="M16.67 5.06a.46.46 0 0 0-.69.35c-.01.15-.04.3-.07.45-.9 4.08-2.7 6.06-5.51 6.06H6.27c-.21 0-.4.15-.45.36l-1.37 6.45-.25 1.64A1.37 1.37 0 0 0 5.55 22H8.3c.63 0 1.18-.43 1.33-1.04l1.12-4.46h2.39c2.82 0 4.77-2.25 5.49-6.34a4.79 4.79 0 0 0-1.97-5.1z" fill="#03A9F4"/><path d="M15.8 1.63A4.82 4.82 0 0 0 12.23 0H4.64C3.5 0 2.54.82 2.37 1.95L.02 17.67a1.38 1.38 0 0 0 1.36 1.58H4.9c.21 0 .4-.15.44-.37l1.3-6.05h3.76c3.26 0 5.42-2.28 6.4-6.78a4.73 4.73 0 0 0-1-4.42z" fill="#283593"/></svg>