<svg width="16" height="13" fill="none" xmlns="http://www.w3.org/2000/svg"><path d="M15.92 7.12l-3.72-4L13.34 2a1.03 1.03 0 0 0 0-1.46c-.4-.4-1.05-.4-1.46 0l-1.56 1.55h-.58V.88a.31.31 0 0 0-.32-.31H7.77V.3a.31.31 0 0 0-.63 0v.26H6V.3a.31.31 0 0 0-.62 0v.26H4.24V.3a.31.31 0 0 0-.63 0v.26H2.47V.3a.31.31 0 0 0-.63 0v.26H.31A.31.31 0 0 0 0 .88v11.2c0 .17.14.3.31.3h3.2a.31.31 0 0 0 0-.62H.62V1.2h1.21v.29a.31.31 0 0 0 .63 0v-.29H3.6v.29a.31.31 0 0 0 .63 0v-.29h1.14v.29a.31.31 0 0 0 .62 0v-.29h1.14v.29a.31.31 0 0 0 .63 0v-.29H9.1v.9c-.56.01-1.1.25-1.5.65l-2.3 2.3a.32.32 0 0 0 .06.48 2.13 2.13 0 0 0 1.16.34l-.36.36a.31.31 0 0 0-.06.09l-1 1.5a.68.68 0 0 0-.12.45H2.16a.31.31 0 0 0 0 .62h3.52a.7.7 0 0 0 .38-.12l1.52-1.04a.32.32 0 0 0 .05-.04l.71-.7.77.77v4.01H6.25a.31.31 0 0 0 0 .63h3.17c.18 0 .32-.14.32-.32V8.36c.4.33.88.5 1.4.5h1.25c.26 0 .51.11.69.3l2.38 2.53c.19.2.54.06.54-.22V7.33a.31.31 0 0 0-.08-.21zM8.06 3.18c.3-.3.72-.47 1.14-.47h.5L7.74 4.65c-.18.17-.35.34-.59.45-.34.15-.73.18-1.09.07l1.99-1.99zM12.32.97a.42.42 0 0 1 .58 0 .4.4 0 0 1 0 .58L9.63 4.81l-.16-.16a1.22 1.22 0 0 0-.53-.31L12.32.97zM5.7 8.24c-.03.02-.05.02-.08 0-.03-.04-.01-.06 0-.08l.81-1.23.48.49-1.21.82zm1.7-1.22l-.58-.58.6-.6c.05.21.17.4.32.54l.15.16-.49.48zm7.96 3.67l-1.84-1.96c-.3-.31-.71-.49-1.14-.49h-1.25c-.42 0-.82-.16-1.11-.46L8.19 5.94c-.27-.2-.21-.64 0-.85a.61.61 0 0 1 .84 0l1.5 1.5c.12.12.32.12.44 0a.31.31 0 0 0 0-.44l-.9-.9 1.69-1.68 3.62 3.88v3.24z" fill="#F98AAB"/></svg>